# File created by Blade
# Date/Time:  Tue Apr 07 21:36:51 2015
#---------------------------------------------------------
:version 1.10
:name HOM
:units
  mass 1.0
  length 1.000000
  angle deg
:documentation
     Acclaim Skeleton File
:root
   axis xyz
   order TX TY TZ RX RY RZ
   position 0.000000 0.000000 0.000000
   orientation 0 0 0
:bonedata
   begin
      id 1
      name Spine_dum
      direction 0.000000 1.000000 0.000000
      length 4.885285
      axis 0.0 0.0 0.0 xyz
   end
   begin
      id 2
      name LeftUpLeg_dum
      direction 1.000000 0.000000 0.000000
      length 2.672193
      axis 0.0 0.0 0.0 xyz
   end
   begin
      id 3
      name RightUpLeg_dum
      direction -1.000000 0.000000 0.000000
      length 2.672193
      axis 0.0 0.0 0.0 xyz
   end
   begin
      id 4
      name Spine
      direction 0.000000 1.000000 0.000000
      length 0.000000
      axis 0.0 0.0 0.0 xyz
      dof rx ry rz
   end
   begin
      id 5
      name Spine_dum1
      direction 0.000000 1.000000 0.000000
      length 16.494159
      axis 0.0 0.0 0.0 xyz
   end
   begin
      id 6
      name Spine_dum2
      direction 0.000000 1.000000 0.000000
      length 10.663448
      axis 0.0 0.0 0.0 xyz
   end
   begin
      id 7
      name Spine_dum3
      direction 0.000000 1.000000 0.000000
      length 10.663448
      axis 0.0 0.0 0.0 xyz
   end
   begin
      id 8
      name Head
      direction 0.000000 1.000000 0.000000
      length 4.527550
      axis 0.0 0.0 0.0 xyz
      dof rx ry rz
   end
   begin
      id 9
      name LeftShoulder
      direction 1.000000 0.000000 0.000000
      length 7.531907
      axis 0.0 0.0 -90.0 xyz
      dof rx ry rz
   end
   begin
      id 10
      name LeftArm
      direction 1.000000 0.000000 0.000000
      length 10.229199
      axis 0.0 0.0 -90.0 xyz
      dof rx ry rz
   end
   begin
      id 11
      name LeftForeArm
      direction 1.000000 0.000000 0.000000
      length 8.673495
      axis 0.0 0.0 -90.0 xyz
      dof ry rz rx
   end
   begin
      id 12
      name LeftHand
      direction 0.000000 0.000000 0.000000
      length 0.000000
      axis 0.0 0.0 -90.0 xyz
      dof rx ry rz
   end
   begin
      id 13
      name LeftHand_dum1
      direction 0.000000 0.000000 0.000000
      length 0.000000
      axis 0.0 0.0 -90.0 xyz
   end
   begin
      id 14
      name LeftHand_dum2
      direction 1.000000 0.000000 0.000000
      length 3.937000
      axis 0.0 0.0 -90.0 xyz
   end
   begin
      id 15
      name LeftHandThumb1
      direction 0.000000 0.000000 1.000000
      length 3.937000
      axis 0.0 0.0 -90.0 xyz
      dof rx rz ry
   end
   begin
      id 16
      name RightShoulder
      direction -1.000000 0.000000 0.000000
      length 7.531907
      axis 0.0 0.0 90.0 xyz
      dof rx ry rz
   end
   begin
      id 17
      name RightArm
      direction -1.000000 0.000000 0.000000
      length 10.229199
      axis 0.0 0.0 90.0 xyz
      dof rx ry rz
   end
   begin
      id 18
      name RightForeArm
      direction -1.000000 0.000000 0.000000
      length 8.673495
      axis 0.0 0.0 90.0 xyz
      dof ry rz rx
   end
   begin
      id 19
      name RightHand
      direction 0.000000 0.000000 0.000000
      length 0.000000
      axis 0.0 0.0 90.0 xyz
      dof rx ry rz
   end
   begin
      id 20
      name RightHand_dum1
      direction 0.000000 0.000000 0.000000
      length 0.000000
      axis 0.0 0.0 90.0 xyz
   end
   begin
      id 21
      name RightHand_dum2
      direction -1.000000 0.000000 0.000000
      length 3.937000
      axis 0.0 0.0 90.0 xyz
   end
   begin
      id 22
      name RightHandThumb1
      direction 0.000000 0.000000 1.000000
      length 3.937000
      axis 0.0 0.0 90.0 xyz
      dof rx rz ry
   end
   begin
      id 23
      name LeftUpLeg
      direction 0.000000 -1.000000 0.000000
      length 16.263388
      axis 0.0 0.0 0.0 xyz
      dof rx ry rz
   end
   begin
      id 24
      name LeftLeg
      direction 0.000000 -1.000000 0.000000
      length 14.328163
      axis 0.0 0.0 0.0 xyz
      dof rx ry rz
   end
   begin
      id 25
      name LeftFoot
      direction 0.000000 -0.258819 0.965926
      length 5.031290
      axis 15.0 0.0 0.0 xyz
      dof rx ry rz
   end
   begin
      id 26
      name LeftToeBase
      direction 0.000000 0.000000 1.000000
      length 2.952750
      axis 0.0 0.0 0.0 xyz
      dof rx ry rz
   end
   begin
      id 27
      name RightUpLeg
      direction 0.000000 -1.000000 0.000000
      length 16.263388
      axis 0.0 0.0 0.0 xyz
      dof rx ry rz
   end
   begin
      id 28
      name RightLeg
      direction 0.000000 -1.000000 0.000000
      length 14.328163
      axis 0.0 0.0 0.0 xyz
      dof rx ry rz
   end
   begin
      id 29
      name RightFoot
      direction 0.000000 -0.258819 0.965926
      length 5.031290
      axis 15.0 0.0 0.0 xyz
      dof rx ry rz
   end
   begin
      id 30
      name RightToeBase
      direction 0.000000 0.000000 1.000000
      length 2.952750
      axis 0.0 0.0 0.0 xyz
      dof rx ry rz
   end
:hierarchy
   begin
      root Spine_dum LeftUpLeg_dum RightUpLeg_dum
      Spine_dum Spine
      LeftUpLeg_dum LeftUpLeg
      RightUpLeg_dum RightUpLeg
      Spine Spine_dum1 Spine_dum2 Spine_dum3
      Spine_dum1 Head
      Spine_dum2 LeftShoulder
      Spine_dum3 RightShoulder
      LeftShoulder LeftArm
      LeftArm LeftForeArm
      LeftForeArm LeftHand
      LeftHand LeftHand_dum1 LeftHand_dum2
      LeftHand_dum1 LeftHandThumb1
      RightShoulder RightArm
      RightArm RightForeArm
      RightForeArm RightHand
      RightHand RightHand_dum1 RightHand_dum2
      RightHand_dum1 RightHandThumb1
      LeftUpLeg LeftLeg
      LeftLeg LeftFoot
      LeftFoot LeftToeBase
      RightUpLeg RightLeg
      RightLeg RightFoot
      RightFoot RightToeBase
   end

# File created by Blade
# Date/Time:  Tue Apr 07 21:36:59 2015
# Frame Rate: 120.000 fps
#------------------------------------------------------
:FULLY-SPECIFIED
:DEGREES
32
root -1.932853 32.982198 7.009523 6.918849 0.519353 -2.257237
Spine -7.580061 -5.118323 1.511125
Head 13.326241 -7.197178 -1.567212
LeftShoulder -21.536351 39.216320 21.400916
LeftArm 55.828251 -61.982086 -57.060558
LeftForeArm 5.281318 -0.000000 -4.041043
LeftHand 5.582447 0.000000 5.124595
LeftHandThumb1 -26.253704 0.000000 33.147579
RightShoulder -7.521831 5.769452 -32.165993
RightArm 16.307238 12.671832 39.943817
RightForeArm -15.013141 -0.000000 1.033271
RightHand 4.653268 -0.000000 -0.055209
RightHandThumb1 -24.326973 -0.000000 -32.862282
LeftUpLeg 1.155029 0.712139 2.823231
LeftLeg -6.372084 -0.000000 0.000000
LeftFoot -4.439423 8.064902 -20.501346
LeftToeBase -4.500436 -0.000000 0.000000
RightUpLeg -0.741924 -0.267907 2.607951
RightLeg -4.153561 -0.000000 0.000000
RightFoot -8.097224 -19.332624 8.263881
RightToeBase 0.151195 -0.000000 -0.000000
33
root -1.942984 32.981316 7.020159 6.963073 0.554134 -2.277947
Spine -7.597210 -5.063612 1.559025
Head 13.313188 -7.273335 -1.576372
LeftShoulder -21.545402 39.259671 21.384396
LeftArm 55.964348 -61.979591 -57.238507
LeftForeArm 5.293298 -0.000000 -3.962117
LeftHand 5.565211 -0.000000 5.172130
LeftHandThumb1 -26.253704 0.000000 33.147579
RightShoulder -7.571921 5.729571 -32.163099
RightArm 16.279930 12.683363 39.821493
RightForeArm -15.062299 -0.000000 0.988484
RightHand 4.477349 -0.000000 -0.211876
RightHandThumb1 -24.326973 -0.000000 -32.862282
LeftUpLeg 1.127530 0.788062 2.864369
LeftLeg -6.373837 -0.000000 0.000000
LeftFoot -4.450948 7.970765 -20.563336
LeftToeBase -4.426458 -0.000000 0.000000
RightUpLeg -0.778467 -0.246162 2.651082
RightLeg -4.140422 -0.000000 0.000000
RightFoot -7.949087 -19.365678 8.079225
RightToeBase 0.108714 -0.000000 -0.000000
34
root -1.952669 32.980406 7.031137 7.008225 0.599757 -2.288178
Spine -7.619966 -5.036329 1.605701
Head 13.317000 -7.348497 -1.602684
LeftShoulder -21.534232 39.304344 21.364580
LeftArm 55.940010 -61.950801 -57.280769
LeftForeArm 5.299866 -0.000000 -3.844058
LeftHand 5.526737 -0.000000 5.187476
LeftHandThumb1 -26.253704 0.000000 33.147579
RightShoulder -7.570437 5.711456 -32.158757
RightArm 16.155742 12.706375 39.666699
RightForeArm -15.149761 -0.000000 1.030560
RightHand 4.420753 0.000000 -0.158453
RightHandThumb1 -24.326973 -0.000000 -32.862282
LeftUpLeg 1.090921 0.867955 2.895711
LeftLeg -6.359965 -0.000000 0.000000
LeftFoot -4.439451 7.847892 -20.599615
LeftToeBase -4.494782 -0.000000 0.000000
RightUpLeg -0.811330 -0.228428 2.681861
RightLeg -4.137363 -0.000000 0.000000
RightFoot -7.838854 -19.406801 7.978789
RightToeBase 0.233511 -0.000000 -0.000000
35
root -1.960735 32.980063 7.041819 7.042286 0.669875 -2.278249
Spine -7.624039 -5.038180 1.643809
Head 13.305768 -7.434258 -1.636515
LeftShoulder -21.574681 39.341333 21.287787
LeftArm 56.001870 -61.887073 -57.349262
LeftForeArm 5.255938 -0.000000 -3.765158
LeftHand 5.522293 -0.000000 5.147157
LeftHandThumb1 -26.253704 0.000000 33.147579
RightShoulder -7.589362 5.700739 -32.141952
RightArm 16.062627 12.771200 39.511289
RightForeArm -15.191782 -0.000000 1.057895
RightHand 4.653797 -0.000000 -0.600967
RightHandThumb1 -24.326973 -0.000000 -32.862282
LeftUpLeg 1.057638 0.906709 2.903989
LeftLeg -6.339378 -0.000000 0.000000
LeftFoot -4.451979 7.775649 -20.631152
LeftToeBase -4.424910 -0.000000 0.000000
RightUpLeg -0.830695 -0.222441 2.686088
RightLeg -4.136004 -0.000000 0.000000
RightFoot -7.752999 -19.439579 7.965356
RightToeBase 0.229877 -0.000000 -0.000000
36
root -1.970328 32.979735 7.053973 7.071070 0.764770 -2.273288
Spine -7.628129 -5.051269 1.689310
Head 13.298155 -7.553500 -1.665158
LeftShoulder -21.568063 39.392758 21.225772
LeftArm 56.023722 -61.832760 -57.385572
LeftForeArm 5.205168 -0.000000 -3.699147
LeftHand 5.518034 -0.000000 5.215406
LeftHandThumb1 -26.253704 0.000000 33.147579
RightShoulder -7.642478 5.644849 -32.158814
RightArm 16.013329 12.800149 39.404788
RightForeArm -15.181813 -0.000000 1.089527
RightHand 4.762480 -0.000000 -0.871183
RightHandThumb1 -24.326973 -0.000000 -32.862282
LeftUpLeg 1.028212 0.941306 2.922309
LeftLeg -6.319715 -0.000000 0.000000
LeftFoot -4.446022 7.671355 -20.671397
LeftToeBase -4.403852 -0.000000 0.000000
RightUpLeg -0.835072 -0.201379 2.698549
RightLeg -4.147367 -0.000000 0.000000
RightFoot -7.673132 -19.506141 7.961008
RightToeBase 0.290048 -0.000000 -0.000000
37
root -1.980817 32.978752 7.069117 7.083053 0.879677 -2.261758
Spine -7.621236 -5.084740 1.726345
Head 13.301389 -7.681594 -1.673364
LeftShoulder -21.534226 39.417863 21.201824
LeftArm 56.010468 -61.756173 -57.414476
LeftForeArm 5.110257 -0.000000 -3.653605
LeftHand 5.563980 0.000000 5.368341
LeftHandThumb1 -26.253704 0.000000 33.147579
RightShoulder -7.689576 5.572378 -32.179712
RightArm 15.961557 12.923205 39.343462
RightForeArm -15.325889 -0.000000 1.161407
RightHand 4.575601 0.000000 -0.965745
RightHandThumb1 -24.326973 -0.000000 -32.862282
LeftUpLeg 1.021928 0.952789 2.934663
LeftLeg -6.307885 -0.000000 0.000000
LeftFoot -4.437063 7.588541 -20.661147
LeftToeBase -4.423027 -0.000000 0.000000
RightUpLeg -0.807383 -0.197194 2.705313
RightLeg -4.176662 -0.000000 0.000000
RightFoot -7.590607 -19.562102 7.983519
RightToeBase 0.405175 -0.000000 -0.000000
38
root -1.992657 32.977917 7.085356 7.097087 1.012944 -2.246282
Spine -7.618543 -5.148451 1.765817
Head 13.300749 -7.835650 -1.695107
LeftShoulder -21.537488 39.460790 21.133676
LeftArm 56.039104 -61.673696 -57.430044
LeftForeArm 5.047019 -0.000000 -3.671502
LeftHand 5.598941 -0.000000 5.183180
LeftHandThumb1 -26.253704 0.000000 33.147579
RightShoulder -7.762257 5.552849 -32.216380
RightArm 15.932060 12.902255 39.280750
RightForeArm -15.278290 0.000000 1.175364
RightHand 4.675661 0.000000 -1.514090
RightHandThumb1 -24.326973 -0.000000 -32.862282
LeftUpLeg 1.015071 0.939021 2.952113
LeftLeg -6.302872 -0.000000 0.000000
LeftFoot -4.418680 7.501010 -20.684757
LeftToeBase -4.408112 -0.000000 0.000000
RightUpLeg -0.773387 -0.242253 2.714052
RightLeg -4.222857 -0.000000 0.000000
RightFoot -7.494604 -19.578899 8.003183
RightToeBase 0.511436 -0.000000 -0.000000
39
root -2.003886 32.977385 7.100384 7.106907 1.151924 -2.216223
Spine -7.614060 -5.220806 1.793359
Head 13.319624 -7.974032 -1.722287
LeftShoulder -21.524976 39.479517 21.066113
LeftArm 56.044320 -61.570654 -57.404328
LeftForeArm 5.087217 0.000000 -3.743431
LeftHand 5.652578 -0.000000 5.447463
LeftHandThumb1 -26.253704 0.000000 33.147579
RightShoulder -7.785827 5.512470 -32.223248
RightArm 15.845224 12.891125 39.143546
RightForeArm -15.313405 -0.000000 1.206073
RightHand 4.977741 -0.000000 -1.844483
RightHandThumb1 -24.326973 -0.000000 -32.862282
LeftUpLeg 1.013116 0.908613 2.951985
LeftLeg -6.306330 -0.000000 0.000000
LeftFoot -4.398935 7.436916 -20.700856
LeftToeBase -4.332409 -0.000000 0.000000
RightUpLeg -0.738925 -0.305947 2.705874
RightLeg -4.268739 -0.000000 0.000000
RightFoot -7.385580 -19.599942 8.019075
RightToeBase 0.582623 -0.000000 -0.000000
40
root -2.015199 32.976939 7.117286 7.119880 1.328235 -2.183137
Spine -7.619076 -5.343355 1.824358
Head 13.349648 -8.153416 -1.739394
LeftShoulder -21.552572 39.517163 20.985105
LeftArm 56.204381 -61.482417 -57.540081
LeftForeArm 5.035692 -0.000000 -3.787550
LeftHand 5.601490 -0.000000 5.229520
LeftHandThumb1 -26.253704 0.000000 33.147579
RightShoulder -7.811969 5.440383 -32.254505
RightArm 15.817139 12.991510 39.098145
RightForeArm -15.436435 -0.000000 1.203835
RightHand 5.181450 -0.000000 -2.121746
RightHandThumb1 -24.326973 -0.000000 -32.862282
LeftUpLeg 1.014836 0.825964 2.955786
LeftLeg -6.321583 -0.000000 0.000000
LeftFoot -4.350166 7.376649 -20.722852
LeftToeBase -4.438000 -0.000000 0.000000
RightUpLeg -0.682818 -0.388559 2.694690
RightLeg -4.349333 -0.000000 0.000000
RightFoot -7.314171 -19.608236 8.122625
RightToeBase 0.651209 -0.000000 -0.000000
41
root -2.029014 32.976232 7.135483 7.139910 1.504751 -2.150111
Spine -7.639783 -5.496925 1.849808
Head 13.383670 -8.308142 -1.747192
LeftShoulder -21.569582 39.510140 20.936578
LeftArm 56.286069 -61.387038 -57.649631
LeftForeArm 5.116654 -0.000000 -3.836171
LeftHand 5.644786 -0.000000 5.316259
LeftHandThumb1 -26.253704 0.000000 33.147579
RightShoulder -7.828378 5.375345 -32.287096
RightArm 15.811122 12.931486 39.043729
RightForeArm -15.417829 0.000000 1.234900
RightHand 5.004820 -0.000000 -2.328213
RightHandThumb1 -24.326973 -0.000000 -32.862282
LeftUpLeg 1.016625 0.751895 2.965418
LeftLeg -6.351859 -0.000000 0.000000
LeftFoot -4.304732 7.312972 -20.752627
LeftToeBase -4.433494 -0.000000 0.000000
RightUpLeg -0.623308 -0.466172 2.694010
RightLeg -4.443335 -0.000000 0.000000
RightFoot -7.236815 -19.655514 8.117213
RightToeBase 0.631858 -0.000000 -0.000000
